PathFileType	4	(X/Y/Z)	C:\Users\u0145647\OneDrive - KU Leuven\KU Leuven\c3d2osim\CP4\T0\Data\Processed\ViconC3D_CP4_2\CP4_T0_13_gapFilled.trc
DataRate	CameraRate	NumFrames	NumMarkers	Units	OrigDataRate	OrigDataStartFrame	OrigNumFrames
100.000000	100.000000	11	47	mm	100.000000	359	573
Frame#	Time	C7			T10			CLAV			STRN			LSHO			RSHO			RBAK			LASI			RASI			LPSI			RPSI			LLAT			RLAT			LF1			LF2			LF3			LTHI			LKNE			LMEK			RF1			RF2			RF3			RTHI			RKNE			RMEK			LT1			LT2			LT3			LTIB			LANK			LMM			RT1			RT2			RT3			RTIB			RANK			RMM			LHEE			LSTL			LLCA			LTOE			LCM5			RHEE			RSTL			RLCA			RTOE			RCM5
		X1	Y1	Z1	X2	Y2	Z2	X3	Y3	Z3	X4	Y4	Z4	X5	Y5	Z5	X6	Y6	Z6	X7	Y7	Z7	X8	Y8	Z8	X9	Y9	Z9	X10	Y10	Z10	X11	Y11	Z11	X12	Y12	Z12	X13	Y13	Z13	X14	Y14	Z14	X15	Y15	Z15	X16	Y16	Z16	X17	Y17	Z17	X18	Y18	Z18	X19	Y19	Z19	X20	Y20	Z20	X21	Y21	Z21	X22	Y22	Z22	X23	Y23	Z23	X24	Y24	Z24	X25	Y25	Z25	X26	Y26	Z26	X27	Y27	Z27	X28	Y28	Z28	X29	Y29	Z29	X30	Y30	Z30	X31	Y31	Z31	X32	Y32	Z32	X33	Y33	Z33	X34	Y34	Z34	X35	Y35	Z35	X36	Y36	Z36	X37	Y37	Z37	X38	Y38	Z38	X39	Y39	Z39	X40	Y40	Z40	X41	Y41	Z41	X42	Y42	Z42	X43	Y43	Z43	X44	Y44	Z44	X45	Y45	Z45	X46	Y46	Z46	X47	Y47	Z47

359	3.58	1914	1401	-46.302	1918	1141.4	-87.241	2036.8	1332.7	-43.715	2087.3	1187.4	-55.366	1995.5	1389.2	-256.79	1939.7	1339.3	141.47	1873.8	1298.2	56.032	2100.6	883.84	-143.36	2067.5	905.24	54.292	1923.7	930.35	-112.41	1909.3	945.2	-40.029	2053.6	952.84	-207.15	2001.5	976.29	86.513	2082.9	618.42	-209.17	2066.3	661.88	-210.21	2050.5	613.15	-220.61	2074.5	544.48	-264.3	2068.2	411.14	-202.15	NaN	NaN	NaN	2039.7	630.15	72.514	2053.5	664.1	80.542	1995.8	656.98	77.171	2056.2	563.7	98.828	2102	459.04	8.9655	NaN	NaN	NaN	1911.9	326.64	-235.85	1967.4	321.49	-212.75	1942.8	360.19	-235.02	1895.5	237.06	-246.77	1711	184.7	-212.1	1727	202.91	-129.3	2064.8	312.57	22.69	2091.9	352.3	4.8161	2046.9	361.77	29.649	2077.4	237.11	56.953	2011.1	72.728	-1.7349	2011.5	90.927	-88.227	1669.6	226.95	-179.95	1703	188.69	-130	1690.8	166.05	-204.51	1746.3	82.982	-122.65	1726.7	62.398	-159.72	1955.7	70.814	-34.903	2008	54.053	-84.491	2016.3	47.225	-6.2433	2134	47.535	-49.876	2114.8	33.295	6.5053
360	3.59	1930.2	1405.8	-45.067	1934.3	1146.1	-86.696	2052.9	1337.6	-43.666	2103.6	1192.4	-55.391	2009.7	1393.7	-256.56	1957	1344.5	141.79	1890.5	1302.8	57.487	2116	888.19	-141.09	2081.1	909.57	55.783	1939.3	935.57	-112.94	1924.6	950.64	-40.525	2071.5	958.1	-205.56	2016.2	982.11	86.883	2105.1	625.25	-210.71	2086.6	668.04	-210.77	2072.9	619.17	-221.26	2098.1	550.28	-266.19	2098.3	417.52	-203.12	NaN	NaN	NaN	2046.9	632.6	74.292	2063.5	666.68	82.297	2003.9	661.31	78.637	2061.1	566.44	100.81	2103.4	459.73	11.569	NaN	NaN	NaN	1943.9	329.18	-235.41	1999.9	325.11	-213	1974	363.42	-234.7	1929.4	239.47	-246.06	1746.9	183.7	-210.65	1763.2	200.19	-127.46	2065.1	313.33	25.072	2092.5	353.05	7.5668	2047.5	362.82	31.984	2077.2	237.95	59.426	2011.5	73.474	-0.38586	2011.6	92.056	-86.914	1703.7	222.91	-176.39	1739.8	184.65	-128.31	1727.7	164.01	-203.43	1789.1	81.077	-126.77	1772.6	62.626	-164.91	1955.4	72.011	-33.018	2007.9	55.288	-83.232	2016.5	47.891	-5.3022	2134	47.512	-49.544	2114.8	32.95	6.9448
361	3.6	1946.7	1410.2	-44.877	1950	1150.7	-86.135	2068.9	1342.4	-43.619	2119.6	1197.1	-55.295	2024.3	1398.1	-256.33	1974.1	1349.6	142.22	1907.2	1307.8	58.242	2131.1	892.45	-139	2094.5	913.78	57.177	1954.6	940.86	-113.43	1939.5	955.84	-41.022	2087.1	962.34	-204.49	2031.2	987.55	87.191	2127.5	632.26	-211.63	2107.2	674.52	-210.93	2095.4	625.09	-221.36	2122.7	558.45	-266.76	2128.4	424.63	-203.57	NaN	NaN	NaN	2055	634.71	75.247	2071.6	669.2	83.803	2011.9	665.5	79.876	2066.3	569.09	102.48	2104.9	460.58	13.953	NaN	NaN	NaN	1976.3	332.16	-234.27	2032.6	329.29	-212.9	2005.3	367.03	-233.65	1964	241.65	-245.57	1783.7	182.12	-209.22	1800.3	196.43	-125.75	2065.6	314.39	27.383	2093.2	354.05	10.133	2048	364.14	34.151	2077	238.8	61.817	2011.5	74.427	1.0508	2011.8	93.51	-85.447	1738.9	217.5	-173.06	1777.6	179.45	-126.86	1766.1	161.3	-202.37	1835.7	79.947	-131.87	1818.2	61.692	-170.45	1955.8	73.595	-31.645	2007.9	56.68	-81.957	2016.8	48.53	-4.5533	2134	47.541	-49.138	2115	32.811	7.4648
362	3.61	1963	1415	-44.183	1965.6	1155.7	-85.444	2085	1346.9	-43.528	2135.4	1201.6	-55.096	2039.3	1402.4	-255.97	1991.1	1354.9	142.87	1923.8	1312.9	59.534	2146.1	896.97	-137	2107.7	917.71	58.529	1969.9	945.81	-113.58	1954.4	960.23	-41.529	2102.5	966.78	-203.14	2043.9	992.12	87.435	2149.8	639.89	-212.24	2127.7	681.3	-211.19	2117.7	631.46	-221.73	2146.8	565.37	-267.67	2158.5	432.19	-204.1	NaN	NaN	NaN	2062	637.19	76.377	2079.5	671.68	85.88	2019.7	669.48	81.089	2070.4	571.15	104.1	2106.7	461.55	16.207	NaN	NaN	NaN	2008.1	336.34	-232.54	2065.4	334.11	-212.49	2036	371.4	-231.72	1998.5	246.52	-246.79	1821.9	179.55	-208.37	1839	191.38	-124.15	2066.4	315.62	29.459	2094.2	355.2	12.384	2048.8	365.31	35.999	2077.4	239.59	63.496	2011.6	75.478	2.0725	2012.1	95.032	-83.972	1775.3	211.44	-169.69	1817	173.11	-125.63	1805.5	157.78	-201.68	1881	77.978	-137.27	1864	61.224	-176.39	1956.2	75.179	-30.449	2008	58.279	-80.728	2017	50.162	-2.9277	2134.1	47.627	-48.743	2115.2	32.727	7.8806
363	3.62	1979.7	1419	-44.581	1980.8	1160	-84.474	2101.1	1351.1	-43.383	2150.9	1205.6	-54.767	2054.7	1406.6	-255.58	2008.3	1359.9	143.25	1940.3	1318	60.644	2161	901.34	-134.97	2120.7	921.32	59.806	1985	950.53	-113.49	1968.8	964.81	-41.485	2117.9	971.16	-201.95	2056.9	995.94	87.874	2171.5	647.39	-212.42	2147.8	688.03	-211.13	2139.5	637.86	-221.62	2170.4	571.64	-268.06	2187.7	440.11	-203.16	NaN	NaN	NaN	2068.7	639.47	77.323	2086.6	673.9	87.776	2027.3	673.18	82.003	2074.9	573.52	105.23	2109.1	462.6	18.18	NaN	NaN	NaN	2039.9	340.71	-230.25	2097.8	339.27	-212.02	2066.5	376.56	-228.85	2033.9	249.64	-247.05	1860.5	176.44	-207.35	1878.4	185.81	-122.9	2067.7	317.01	31.316	2095.8	356.47	14.413	2050.3	367.06	38.064	2078.5	240.99	65.139	2013.2	77.472	3.4869	2012.9	96.924	-82.687	1812.8	204.35	-166.69	1856.9	166.73	-124.34	1845.3	153.76	-200.99	1925.5	75.204	-142.64	1910.3	60.612	-182.64	1957.1	77.308	-29.073	2008.4	60.018	-79.533	2017.5	51.721	-1.6961	2134.3	47.634	-48.262	2115.6	32.568	8.3402
364	3.63	1996.2	1423.3	-43.982	1995.8	1164.5	-83.927	2117.3	1354.7	-43.115	2166.3	1209.1	-54.352	2070.6	1410.4	-255.3	2025.4	1364.8	143.51	1956.7	1323.1	61.581	2175.8	905.52	-133.12	2133.8	924.47	60.898	2000	954.6	-113.65	1983.2	968.61	-41.753	2133.2	975.39	-200.85	2070.2	999.4	88.384	2192.7	654.7	-212.27	2167.5	694.59	-211.03	2160.4	644.52	-221.63	2194.3	579.13	-267.52	2216.4	448.32	-201.7	NaN	NaN	NaN	2073.9	642.86	78.563	2094.6	675.37	88.2	2035.1	676.38	82.337	2079.5	576.09	106.34	2112.5	463.79	19.975	NaN	NaN	NaN	2071.7	344.56	-228.32	2130.3	344.87	-211.41	2097	381.38	-225.63	2069.3	253.83	-247.14	1900	172.52	-206.4	1918.6	179.78	-121.47	2069.9	318.62	33.056	2098.2	357.86	16.2	2052.9	368.65	39.537	2080.1	242.4	66.522	2013.6	78.93	4.8791	2013.7	98.98	-81.397	1851.3	196.47	-163.79	1898	159.28	-123.51	1886.1	149.01	-200.32	1972.6	73.194	-147.69	1956.6	59.678	-188.02	1957.2	80.064	-27.514	2008.8	62.335	-78.384	2018.2	53.247	-0.78357	2134.5	47.657	-47.827	2115.9	32.357	8.6022
365	3.64	2012.7	1427.4	-43.006	2010.5	1168.4	-83.018	2133.8	1358	-42.795	2181.6	1212	-53.913	2086.6	1413.7	-254.83	2042.4	1369.2	143.9	1973	1327.8	62.443	2190.5	909.35	-131.41	2147.9	927.56	61.935	2014.7	958.54	-113.48	1997.3	971.9	-41.82	2148.2	979.49	-199.68	2083.3	1002.2	88.851	2213.4	661.74	-211.89	2186.8	700.71	-210.66	2182.3	650.12	-221.41	2217.6	586.3	-266.4	2244.4	456.77	-199.77	NaN	NaN	NaN	2081	644.97	79.339	2102.3	677.01	88.922	2042.4	679.95	83.12	2084.3	578	107.88	2116.8	465.01	21.692	NaN	NaN	NaN	2103	348.28	-225.77	2162.3	350.11	-210.21	2126.6	386.12	-222.17	2104.7	257.3	-247.4	1940.3	168.1	-205.29	1960.3	172.69	-120.65	2072.8	320.19	34.503	2101.5	359.27	17.798	2056.3	370.54	41.257	2082.3	243.96	67.901	2014.6	80.816	5.8762	2015.3	101.37	-80.351	1890.8	187.59	-160.77	1940.1	151.38	-122.66	1927.7	143.72	-199.63	2018.9	71.049	-152.4	2003.7	58.956	-192.94	1958.1	82.732	-26.618	2009.5	64.889	-77.175	2018.9	54.758	-0.44765	2134.9	47.709	-47.48	2116.4	32.249	8.852
366	3.65	2029.4	1431.3	-42.393	2025.2	1171.9	-82.364	2150	1360.8	-42.474	2196.8	1214.4	-53.349	2103.3	1416.8	-253.9	2059.4	1373.3	144.24	1989.3	1332.4	63.348	2205.2	912.74	-129.8	2159.3	929.15	62.82	2029.3	961.77	-113.51	2011.2	974.91	-41.996	2163.3	983.01	-199.02	2096.2	1004.5	89.402	2233.7	668.29	-211.18	2206	706.47	-210.19	2202.7	655.48	-220.36	2240.9	591.88	-265.35	2271.6	464.6	-197.11	NaN	NaN	NaN	2088.7	647.27	80.577	2110.5	679	89.548	2050.7	682.79	83.393	2090.7	580.4	109.07	2121.9	466.23	23.242	NaN	NaN	NaN	2134.1	351.11	-222.61	2194.1	355.27	-208.74	2156.4	390.32	-218.44	2140.4	260.91	-247.26	1981.4	162.89	-204.2	2002.2	166.03	-118.86	2076.3	321.84	35.878	2105.4	360.62	19.356	2060.2	372.2	42.819	2084.9	245.31	68.848	2016.1	82.776	6.3555	2016.5	103.96	-79.352	1930.6	178.54	-158.34	1983.2	143.48	-121.92	1970.3	137.85	-198.91	2066.2	68.684	-155.94	2051.4	58.304	-197.14	1959.5	85.538	-26.191	2010.3	67.215	-76.572	2019.6	57.057	0.72407	2135.4	47.777	-47.037	2116.8	32.168	9.1193
367	3.66	2046.1	1434.4	-42.599	2039.9	1175.3	-81.579	2166.2	1363	-42.133	2212	1216.3	-52.809	2119.9	1419.6	-253.62	2076.3	1377.1	144.68	2005.5	1336.5	64.348	2219.8	915.67	-128.24	2172	931.11	63.669	2043.8	964.21	-113.48	2025.2	977.28	-42.302	2178.4	986.23	-197.98	2109.2	1006.7	89.779	2253.7	673.98	-210.31	2224.7	711.42	-209.41	2222.4	660.6	-219.32	NaN	NaN	NaN	2298.3	472.61	-194.29	NaN	NaN	NaN	2097.7	649.66	81.085	2119.7	680.91	90.01	2059.8	685.35	83.851	2098.9	582.68	110.08	2127.9	467.44	24.533	NaN	NaN	NaN	2165.7	353.44	-219.75	2225.1	360.23	-206.17	2185.6	393.4	-214.44	2176.6	263.99	-246.22	2023.5	157.23	-203.02	2044.8	159.12	-117.58	2080.5	323.44	36.81	2110	361.91	20.648	2065	374.19	43.821	2088	247.04	70.068	2017.4	84.993	7.1183	2018.2	106.46	-78.614	1973.6	167.99	-155.75	2026.8	135.45	-121.06	2013.9	131.37	-198.07	2114	66.882	-158.41	2099.7	57.703	-200.3	1960.8	88.854	-25.275	2011.5	69.901	-75.871	2020.6	59.319	1.5086	2136	47.871	-46.72	2117.1	32.077	9.2575
368	3.67	2062.8	1436.9	-41.37	2054.5	1178.3	-81.392	2182.3	1364.8	-41.753	2227	1217.7	-52.177	2136.6	1421.7	-253.35	2093.2	1380.4	144.87	2021.6	1340.1	65.115	2234.4	918.27	-126.7	2184.6	932.93	64.584	2058.3	966.16	-113.6	2038.8	979.15	-42.629	2193.2	988.77	-196.89	2122	1008.8	90.216	2273.4	679.33	-208.81	2243.8	716.14	-208.64	2243.1	664.75	-217.9	NaN	NaN	NaN	2324.4	480.01	-190.9	NaN	NaN	NaN	2107.5	651.57	81.535	2129.6	682.73	90.25	2069.8	687.84	84.301	2108.2	584.74	110.97	2134.8	468.56	25.497	NaN	NaN	NaN	2197.4	354.91	-216.9	2256.9	364.49	-204.47	2215.1	395.63	-211.17	2212.6	266.4	-245.1	2066.6	150.96	-201.63	2087.7	151.98	-116.09	2084.8	325.1	37.83	2115.4	363.08	21.721	2070	376.12	44.429	2091	248.39	71.005	2018.6	87.612	8.1783	2020.7	108.53	-77.896	2016.3	157.65	-153.97	2071.6	127.61	-120.12	2058.5	124.42	-197.12	2162.7	65.505	-159.82	2148.7	56.868	-201.7	1962.5	92.101	-24.963	2013	72.512	-75.494	2021.7	61.706	1.8504	2136.5	48.053	-46.373	2117.5	32.114	9.3852
369	3.68	2079.5	1439.3	-41.053	2068.9	1180.4	-80.659	2198.5	1366	-41.427	2241.8	1218.5	-51.484	2153.1	1423.1	-252.98	2109.8	1383.3	145.19	2037.6	1343.3	65.897	2249.1	920.34	-125.09	2197	934.42	65.691	2072.7	967.49	-113.9	2052.6	980.52	-43.292	2207.9	990.39	-195.86	2134.4	1010.6	90.811	2293	683.87	-206.98	2262.7	720.26	-207.6	2263.1	668.45	-216.17	NaN	NaN	NaN	2349.7	486.78	-187.29	NaN	NaN	NaN	2117.8	653.11	81.645	2140	684.07	90.254	2080.4	689.75	84.201	2118.7	586.63	111.37	2142.8	469.55	26.414	NaN	NaN	NaN	2229.7	355.14	-214.39	2288.5	368.13	-201.72	2244.9	396.82	-208.25	2249.9	268.17	-243.03	2110.7	144.37	-200.27	2132.8	145.93	-114.82	2090.2	326.78	38.349	2121.6	364.07	21.866	2076.3	377.87	44.579	2094.9	250.22	71.588	2020.3	89.929	8.0549	2022.5	111.39	-77.101	2060.1	147.25	-152.22	2118.1	119.47	-118.63	2104.1	117.47	-195.67	2211.7	64.284	-159.9	2198.4	56.077	-202.05	1964.1	96.033	-24.596	2014.2	75.305	-75.252	2022.4	64.08	2.6866	2137.1	48.125	-46.181	2117.7	32.141	9.4229
